<svg width="991" height="290" viewBox="0 0 991 290" fill="none" xmlns="http://www.w3.org/2000/svg">
<path d="M436.408 74.75C436.408 78.8333 435.617 82.9792 434.033 87.1875C432.492 91.3958 430.138 95.2708 426.971 98.8125C423.804 102.312 419.783 105.146 414.908 107.312C410.075 109.479 404.346 110.563 397.721 110.563C388.929 110.563 381.408 108.542 375.158 104.5C368.908 100.417 364.138 94.7917 360.846 87.625C357.554 80.4583 355.908 72.2083 355.908 62.875C355.908 53.5417 357.554 45.3125 360.846 38.1875C364.138 31.0208 368.908 25.4167 375.158 21.375C381.408 17.3333 388.929 15.3125 397.721 15.3125C405.013 15.3125 411.242 16.6042 416.408 19.1875C421.575 21.7708 425.721 25.125 428.846 29.25C431.971 33.375 434.117 37.75 435.283 42.375C436.033 45.375 436.408 48.2708 436.408 51.0625H414.033C414.033 49.7708 413.95 48.5833 413.783 47.5C413.367 44.625 412.471 42.1042 411.096 39.9375C409.721 37.7292 407.908 36 405.658 34.75C403.408 33.5 400.763 32.875 397.721 32.875C394.054 32.875 390.783 33.9375 387.908 36.0625C385.075 38.1458 382.804 41.3958 381.096 45.8125C379.429 50.2292 378.596 55.9167 378.596 62.875C378.596 69.8333 379.429 75.5417 381.096 80C382.804 84.4583 385.075 87.75 387.908 89.875C390.783 92 394.054 93.0625 397.721 93.0625C400.304 93.0625 402.596 92.5833 404.596 91.625C406.638 90.6667 408.346 89.3542 409.721 87.6875C411.138 85.9792 412.2 84.0208 412.908 81.8125C413.658 79.6042 414.033 77.25 414.033 74.75H436.408ZM444.624 109V16.8125H483.749C493.833 16.8125 501.312 19.0833 506.187 23.625C511.103 28.125 513.562 34.5 513.562 42.75C513.562 47.5 512.666 51.5417 510.874 54.875C509.083 58.1667 506.853 60.7292 504.187 62.5625C501.52 64.3542 498.916 65.3542 496.374 65.5625C498.999 65.7292 501.458 66.375 503.749 67.5C506.083 68.5833 507.958 70.3542 509.374 72.8125C510.833 75.2292 511.562 78.4792 511.562 82.5625C511.562 85.3958 511.562 88.1458 511.562 90.8125C511.562 93.4375 511.562 96.1667 511.562 99C511.562 101.125 511.728 103.125 512.062 105C512.395 106.833 512.895 108.167 513.562 109H491.249C490.666 108.042 490.187 106.667 489.812 104.875C489.478 103.083 489.312 101.125 489.312 99C489.312 96.5 489.312 94.1875 489.312 92.0625C489.312 89.9375 489.312 87.625 489.312 85.125C489.312 81.6667 488.478 78.9583 486.812 77C485.187 75.0417 482.416 74.0625 478.499 74.0625H460.562L466.437 67.125V109H444.624ZM466.437 65.125L460.562 57.1875H478.749C481.041 57.1875 483.083 56.6875 484.874 55.6875C486.666 54.6875 488.062 53.2708 489.062 51.4375C490.103 49.5625 490.624 47.375 490.624 44.875C490.624 41.5417 489.541 38.8333 487.374 36.75C485.249 34.6667 482.291 33.625 478.499 33.625H459.999L466.437 26.6875V65.125ZM562.795 110.563C556.962 110.563 551.441 109.542 546.233 107.5C541.066 105.417 536.504 102.354 532.545 98.3125C528.587 94.2708 525.462 89.2917 523.17 83.375C520.92 77.4167 519.795 70.5625 519.795 62.8125C519.795 55.0625 520.92 48.2292 523.17 42.3125C525.42 36.3958 528.504 31.4375 532.42 27.4375C536.379 23.4375 540.941 20.4167 546.108 18.375C551.316 16.3333 556.879 15.3125 562.795 15.3125C568.712 15.3125 574.254 16.3333 579.42 18.375C584.629 20.4167 589.212 23.4375 593.17 27.4375C597.129 31.4375 600.212 36.3958 602.42 42.3125C604.67 48.2292 605.795 55.0625 605.795 62.8125C605.795 70.5625 604.649 77.4167 602.358 83.375C600.108 89.2917 596.983 94.2708 592.983 98.3125C589.024 102.354 584.441 105.417 579.233 107.5C574.066 109.542 568.587 110.563 562.795 110.563ZM562.795 93C566.295 93 569.587 92.0625 572.67 90.1875C575.754 88.2708 578.254 85.1042 580.17 80.6875C582.129 76.2708 583.108 70.3125 583.108 62.8125C583.108 55.2708 582.129 49.3333 580.17 45C578.212 40.625 575.691 37.5208 572.608 35.6875C569.524 33.8125 566.254 32.875 562.795 32.875C559.337 32.875 556.045 33.8125 552.92 35.6875C549.837 37.5208 547.316 40.625 545.358 45C543.441 49.3333 542.483 55.2708 542.483 62.8125C542.483 70.3542 543.441 76.3333 545.358 80.75C547.316 85.125 549.837 88.2708 552.92 90.1875C556.045 92.0625 559.337 93 562.795 93ZM614.004 109V16.8125H646.067C652.233 16.8125 657.858 17.9375 662.942 20.1875C668.067 22.4375 672.483 25.625 676.192 29.75C679.9 33.8333 682.754 38.6875 684.754 44.3125C686.754 49.8958 687.754 56.0417 687.754 62.75C687.754 69.4167 686.754 75.5833 684.754 81.25C682.754 86.875 679.9 91.7708 676.192 95.9375C672.483 100.062 668.067 103.271 662.942 105.562C657.858 107.854 652.233 109 646.067 109H614.004ZM636.379 102.437L626.317 92.125H643.067C647.15 92.125 650.838 90.9375 654.129 88.5625C657.463 86.1875 660.129 82.8125 662.129 78.4375C664.129 74.0208 665.129 68.7917 665.129 62.75C665.129 56.6667 664.129 51.4583 662.129 47.125C660.129 42.7917 657.463 39.4792 654.129 37.1875C650.838 34.8542 647.15 33.6875 643.067 33.6875H626.317L636.379 23.375V102.437ZM767.01 75.9375C767.01 87.5208 763.823 96.1875 757.448 101.937C751.114 107.687 742.448 110.563 731.448 110.563C720.448 110.563 711.781 107.687 705.448 101.937C699.114 96.1875 695.948 87.5208 695.948 75.9375C695.948 74.3958 695.948 72.7917 695.948 71.125C695.948 69.4167 695.948 67.6458 695.948 65.8125V16.8125H718.323V69.1875C718.323 70.5208 718.323 71.7917 718.323 73C718.323 74.2083 718.323 75.3542 718.323 76.4375C718.323 82.0208 719.302 86.1875 721.26 88.9375C723.26 91.6875 726.656 93.0625 731.448 93.0625C736.239 93.0625 739.635 91.6875 741.635 88.9375C743.677 86.1875 744.698 82.0208 744.698 76.4375V16.8125H767.01V75.9375ZM777.644 109V16.8125H799.644V109H777.644ZM831.902 109H810.152V16.8125H844.464L872.652 101.75L868.589 102.625V16.8125H890.277V109H855.714L827.527 24.375L831.902 23.5V109ZM941.506 110.563C935.673 110.563 930.152 109.542 924.944 107.5C919.777 105.417 915.214 102.354 911.256 98.3125C907.298 94.2708 904.173 89.2917 901.881 83.375C899.631 77.4167 898.506 70.5625 898.506 62.8125C898.506 55.0625 899.631 48.2292 901.881 42.3125C904.131 36.3958 907.214 31.4375 911.131 27.4375C915.089 23.4375 919.652 20.4167 924.819 18.375C930.027 16.3333 935.589 15.3125 941.506 15.3125C947.423 15.3125 952.964 16.3333 958.131 18.375C963.339 20.4167 967.923 23.4375 971.881 27.4375C975.839 31.4375 978.923 36.3958 981.131 42.3125C983.381 48.2292 984.506 55.0625 984.506 62.8125C984.506 70.5625 983.36 77.4167 981.069 83.375C978.819 89.2917 975.694 94.2708 971.694 98.3125C967.735 102.354 963.152 105.417 957.944 107.5C952.777 109.542 947.298 110.563 941.506 110.563ZM941.506 93C945.006 93 948.298 92.0625 951.381 90.1875C954.464 88.2708 956.964 85.1042 958.881 80.6875C960.839 76.2708 961.819 70.3125 961.819 62.8125C961.819 55.2708 960.839 49.3333 958.881 45C956.923 40.625 954.402 37.5208 951.319 35.6875C948.235 33.8125 944.964 32.875 941.506 32.875C938.048 32.875 934.756 33.8125 931.631 35.6875C928.548 37.5208 926.027 40.625 924.069 45C922.152 49.3333 921.194 55.2708 921.194 62.8125C921.194 70.3542 922.152 76.3333 924.069 80.75C926.027 85.125 928.548 88.2708 931.631 90.1875C934.756 92.0625 938.048 93 941.506 93Z" fill="black"/>
<path d="M385.949 249V252H388.375L388.882 249.628L385.949 249ZM354.266 249L351.331 248.375L350.56 252H354.266V249ZM382.055 118.462V115.462H379.626L379.12 117.838L382.055 118.462ZM451.527 123.507L450.019 126.1L450.03 126.107L451.527 123.507ZM464.448 137.047L461.754 138.367L461.762 138.384L461.77 138.4L464.448 137.047ZM464.094 177.049L466.802 178.341L466.806 178.332L464.094 177.049ZM451.439 193.776L453.405 196.041L453.412 196.035L453.419 196.029L451.439 193.776ZM432.854 204.661L433.873 207.483L433.884 207.479L433.894 207.475L432.854 204.661ZM394.622 208.467V205.467H392.196L391.688 207.839L394.622 208.467ZM396.569 198.732L394.224 200.604L398.183 205.56L399.503 199.356L396.569 198.732ZM385.329 184.66V181.66H379.093L382.985 186.533L385.329 184.66ZM425.154 181.209L423.575 178.658L423.566 178.664L423.557 178.67L425.154 181.209ZM433.739 171.828L436.414 173.186L436.418 173.178L436.422 173.17L433.739 171.828ZM434.889 149.614L432.206 150.956L432.219 150.983L432.233 151.009L434.889 149.614ZM429.579 144.216L428.157 146.857L428.171 146.865L428.185 146.872L429.579 144.216ZM394.356 142.357L392.439 140.05L386.05 145.357H394.356V142.357ZM411.614 128.02L414.548 128.645L416.347 120.188L409.696 125.713L411.614 128.02ZM385.949 246H354.266V252H385.949V246ZM357.2 249.625L384.989 119.087L379.12 117.838L351.331 248.375L357.2 249.625ZM382.055 121.462H429.225V115.462H382.055V121.462ZM429.225 121.462C437.964 121.462 444.83 123.082 450.019 126.1L453.035 120.914C446.66 117.206 438.658 115.462 429.225 115.462V121.462ZM450.03 126.107C455.391 129.193 459.262 133.277 461.754 138.367L467.142 135.728C464.088 129.49 459.345 124.547 453.024 120.907L450.03 126.107ZM461.77 138.4C464.374 143.553 465.696 149.279 465.696 155.632H471.696C471.696 148.416 470.186 141.752 467.126 135.695L461.77 138.4ZM465.696 155.632C465.696 163.015 464.245 169.711 461.382 175.767L466.806 178.332C470.079 171.408 471.696 163.826 471.696 155.632H465.696ZM461.386 175.758C458.494 181.821 454.523 187.07 449.458 191.523L453.419 196.029C459.092 191.042 463.558 185.14 466.802 178.341L461.386 175.758ZM449.472 191.511C444.39 195.922 438.513 199.37 431.813 201.848L433.894 207.475C441.236 204.761 447.749 200.952 453.405 196.041L449.472 191.511ZM431.834 201.84C425.159 204.252 418.042 205.467 410.463 205.467V211.467C418.696 211.467 426.506 210.145 433.873 207.483L431.834 201.84ZM410.463 205.467H394.622V211.467H410.463V205.467ZM391.688 207.839L383.015 248.372L388.882 249.628L397.555 209.095L391.688 207.839ZM398.913 196.86L387.673 182.788L382.985 186.533L394.224 200.604L398.913 196.86ZM385.329 187.66H412.056V181.66H385.329V187.66ZM412.056 187.66C417.595 187.66 422.537 186.399 426.751 183.748L423.557 178.67C420.455 180.621 416.665 181.66 412.056 181.66V187.66ZM426.733 183.76C430.925 181.165 434.162 177.622 436.414 173.186L431.063 170.47C429.303 173.94 426.817 176.651 423.575 178.658L426.733 183.76ZM436.422 173.17C438.662 168.689 439.748 163.677 439.748 158.199H433.748C433.748 162.869 432.827 166.943 431.055 170.486L436.422 173.17ZM439.748 158.199C439.748 154.474 439.062 151.108 437.545 148.22L432.233 151.009C433.195 152.841 433.748 155.198 433.748 158.199H439.748ZM437.572 148.273C436.108 145.344 433.884 143.088 430.974 141.56L428.185 146.872C429.994 147.822 431.31 149.165 432.206 150.956L437.572 148.273ZM431.001 141.575C428.149 140.039 424.764 139.357 420.995 139.357V145.357C424.069 145.357 426.407 145.915 428.157 146.857L431.001 141.575ZM420.995 139.357H394.356V145.357H420.995V139.357ZM396.273 144.665L413.531 130.328L409.696 125.713L392.439 140.05L396.273 144.665ZM408.679 127.396L393.634 198.108L399.503 199.356L414.548 128.645L408.679 127.396ZM495.289 245.194L493.874 247.84L493.886 247.846L493.898 247.853L495.289 245.194ZM477.235 227.317L474.617 228.783L474.622 228.791L477.235 227.317ZM475.907 166.252L478.731 167.267L478.733 167.262L475.907 166.252ZM491.041 140.233L493.292 142.217L493.3 142.208L491.041 140.233ZM514.493 122.71L515.749 125.435L515.757 125.431L514.493 122.71ZM570.779 122.356L569.372 125.006L569.384 125.012L569.397 125.019L570.779 122.356ZM588.833 139.968L586.225 141.45L586.23 141.459L588.833 139.968ZM590.072 200.767L587.251 199.749L587.247 199.758L590.072 200.767ZM574.85 227.052L577.108 229.028L577.116 229.019L574.85 227.052ZM551.309 244.84L552.58 247.558L552.587 247.555L552.594 247.551L551.309 244.84ZM541.486 221.211L543.19 223.68L543.19 223.68L541.486 221.211ZM553.787 207.67L556.384 209.174L556.39 209.162L553.787 207.67ZM561.044 188.997L563.965 189.683L563.966 189.677L561.044 188.997ZM560.602 152.446L557.887 153.724L557.891 153.732L557.895 153.739L560.602 152.446ZM552.902 143.862L551.445 146.484L551.474 146.5L551.503 146.516L552.902 143.862ZM524.405 146.163L526.049 148.673L526.059 148.666L526.07 148.659L524.405 146.163ZM512.104 159.261L509.522 157.734L509.522 157.734L512.104 159.261ZM504.935 177.58L502.011 176.913L502.011 176.913L504.935 177.58ZM508.652 220.06L506.471 222.12L506.486 222.136L506.501 222.151L508.652 220.06ZM521.042 248.213C511.98 248.213 503.88 246.302 496.679 242.536L493.898 247.853C502.038 252.111 511.107 254.213 521.042 254.213V248.213ZM496.704 242.549C489.618 238.759 484.006 233.217 479.848 225.844L474.622 228.791C479.314 237.112 485.738 243.488 493.874 247.84L496.704 242.549ZM479.853 225.852C475.737 218.499 473.597 209.329 473.597 198.201H467.597C467.597 210.083 469.883 220.324 474.617 228.783L479.853 225.852ZM473.597 198.201C473.597 187.069 475.318 176.765 478.731 167.267L473.084 165.238C469.417 175.446 467.597 186.441 467.597 198.201H473.597ZM478.733 167.262C482.153 157.685 487.01 149.348 493.292 142.217L488.79 138.25C481.974 145.987 476.742 154.996 473.082 165.243L478.733 167.262ZM493.3 142.208C499.569 135.034 507.045 129.448 515.749 125.435L513.237 119.986C503.77 124.351 495.61 130.447 488.782 138.259L493.3 142.208ZM515.757 125.431C524.466 121.386 534.176 119.338 544.937 119.338V113.338C533.396 113.338 522.811 115.539 513.23 119.99L515.757 125.431ZM544.937 119.338C554.188 119.338 562.308 121.253 569.372 125.006L572.187 119.707C564.147 115.436 555.039 113.338 544.937 113.338V119.338ZM569.397 125.019C576.47 128.693 582.073 134.142 586.225 141.45L591.442 138.486C586.744 130.218 580.311 123.926 572.162 119.694L569.397 125.019ZM586.23 141.459C590.33 148.62 592.471 157.688 592.471 168.819H598.471C598.471 156.94 596.187 146.774 591.437 138.477L586.23 141.459ZM592.471 168.819C592.471 179.824 590.724 190.126 587.251 199.749L592.894 201.786C596.619 191.467 598.471 180.47 598.471 168.819H592.471ZM587.247 199.758C583.827 209.335 578.938 217.768 572.585 225.085L577.116 229.019C583.979 221.114 589.238 212.024 592.898 201.777L587.247 199.758ZM572.593 225.076C566.256 232.319 558.74 237.998 550.024 242.13L552.594 247.551C562.051 243.069 570.229 236.889 577.108 229.028L572.593 225.076ZM550.039 242.123C541.391 246.166 531.742 248.213 521.042 248.213V254.213C532.527 254.213 543.056 252.011 552.58 247.558L550.039 242.123ZM523.874 229.344C531.188 229.344 537.671 227.491 543.19 223.68L539.781 218.742C535.388 221.775 530.13 223.344 523.874 223.344V229.344ZM543.19 223.68C548.538 219.987 552.934 215.133 556.384 209.174L551.191 206.167C548.151 211.418 544.345 215.591 539.781 218.742L543.19 223.68ZM556.39 209.162C559.789 203.23 562.31 196.731 563.965 189.683L558.124 188.311C556.593 194.833 554.276 200.783 551.184 206.179L556.39 209.162ZM563.966 189.677C565.609 182.618 566.434 175.575 566.434 168.553H560.434C560.434 175.102 559.665 181.688 558.123 188.317L563.966 189.677ZM566.434 168.553C566.434 161.542 565.467 155.671 563.309 151.154L557.895 153.739C559.513 157.128 560.434 161.995 560.434 168.553H566.434ZM563.316 151.169C561.21 146.694 558.235 143.282 554.302 141.208L551.503 146.516C554.06 147.864 556.217 150.175 557.887 153.724L563.316 151.169ZM554.359 141.24C550.677 139.194 546.537 138.207 542.017 138.207V144.207C545.639 144.207 548.755 144.99 551.445 146.484L554.359 141.24ZM542.017 138.207C534.725 138.207 528.256 139.99 522.741 143.667L526.07 148.659C530.466 145.728 535.739 144.207 542.017 144.207V138.207ZM522.762 143.653C517.393 147.168 512.982 151.882 509.522 157.734L514.686 160.788C517.716 155.666 521.506 151.648 526.049 148.673L522.762 143.653ZM509.522 157.734C506.106 163.509 503.608 169.91 502.011 176.913L507.86 178.248C509.331 171.799 511.612 165.987 514.686 160.788L509.522 157.734ZM502.011 176.913C500.426 183.86 499.634 190.928 499.634 198.112H505.634C505.634 191.373 506.377 184.753 507.86 178.248L502.011 176.913ZM499.634 198.112C499.634 208.72 501.652 217.018 506.471 222.12L510.833 218.001C507.629 214.607 505.634 208.273 505.634 198.112H499.634ZM506.501 222.151C511.162 226.947 517.024 229.344 523.874 229.344V223.344C518.571 223.344 514.285 221.552 510.804 217.97L506.501 222.151ZM592.033 249L589.099 248.375L588.327 252H592.033V249ZM619.822 118.462V115.462H617.394L616.888 117.838L619.822 118.462ZM651.505 118.462L654.44 119.086L655.21 115.462H651.505V118.462ZM625.752 239.619L623.277 241.315L627.231 247.087L628.686 240.243L625.752 239.619ZM614.778 223.6V220.6H609.086L612.303 225.296L614.778 223.6ZM676.639 223.6L679.574 224.224L680.344 220.6H676.639V223.6ZM671.241 249V252H673.67L674.175 249.624L671.241 249ZM594.967 249.625L622.756 119.087L616.888 117.838L589.099 248.375L594.967 249.625ZM619.822 121.462H651.505V115.462H619.822V121.462ZM648.571 117.839L622.817 238.995L628.686 240.243L654.44 119.086L648.571 117.839ZM628.227 237.923L617.253 221.905L612.303 225.296L623.277 241.315L628.227 237.923ZM614.778 226.6H676.639V220.6H614.778V226.6ZM673.705 222.977L668.306 248.376L674.175 249.624L679.574 224.224L673.705 222.977ZM671.241 246H592.033V252H671.241V246ZM682.31 249L679.376 248.375L678.604 252H682.31V249ZM710.099 118.462V115.462H707.671L707.165 117.838L710.099 118.462ZM741.782 118.462L744.717 119.086L745.487 115.462H741.782V118.462ZM716.029 239.619L713.554 241.315L717.508 247.087L718.963 240.243L716.029 239.619ZM705.055 223.6V220.6H699.363L702.58 225.296L705.055 223.6ZM766.916 223.6L769.851 224.224L770.621 220.6H766.916V223.6ZM761.518 249V252H763.947L764.452 249.624L761.518 249ZM685.244 249.625L713.033 119.087L707.165 117.838L679.376 248.375L685.244 249.625ZM710.099 121.462H741.782V115.462H710.099V121.462ZM738.848 117.839L713.094 238.995L718.963 240.243L744.717 119.086L738.848 117.839ZM718.504 237.923L707.53 221.905L702.58 225.296L713.554 241.315L718.504 237.923ZM705.055 226.6H766.916V220.6H705.055V226.6ZM763.982 222.977L758.583 248.376L764.452 249.624L769.851 224.224L763.982 222.977ZM761.518 246H682.31V252H761.518V246ZM812.855 142.357L810.923 140.062L804.633 145.357H812.855V142.357ZM830.201 127.755L833.134 128.383L834.968 119.82L828.269 125.46L830.201 127.755ZM818.961 180.235L816.391 181.783L820.305 188.285L821.895 180.864L818.961 180.235ZM813.74 171.562V168.562H808.432L811.169 173.11L813.74 171.562ZM861.264 171.562L864.199 172.182L864.964 168.562H861.264V171.562ZM856.22 195.457V198.457H858.652L859.155 196.077L856.22 195.457ZM808.695 195.457L806.606 193.304L801.294 198.457H808.695V195.457ZM817.545 186.873L820.48 187.493L822.51 177.878L815.456 184.72L817.545 186.873ZM806.394 239.707L804.01 241.528L807.979 246.726L809.329 240.327L806.394 239.707ZM795.243 225.105V222.105H789.177L792.859 226.926L795.243 225.105ZM859.76 225.105L862.693 225.735L863.472 222.105H859.76V225.105ZM854.627 249V252H857.051L857.56 249.63L854.627 249ZM772.587 249L769.653 248.375L768.881 252H772.587V249ZM800.376 118.462V115.462H797.947L797.442 117.838L800.376 118.462ZM882.416 118.462L885.349 119.093L886.128 115.462H882.416V118.462ZM877.283 142.357V145.357H879.707L880.216 142.988L877.283 142.357ZM814.787 144.653L832.133 130.05L828.269 125.46L810.923 140.062L814.787 144.653ZM827.267 127.127L816.028 179.607L821.895 180.864L833.134 128.383L827.267 127.127ZM821.531 178.688L816.31 170.015L811.169 173.11L816.391 181.783L821.531 178.688ZM813.74 174.562H861.264V168.562H813.74V174.562ZM858.329 170.943L853.284 194.838L859.155 196.077L864.199 172.182L858.329 170.943ZM856.22 192.457H808.695V198.457H856.22V192.457ZM810.784 197.611L819.634 189.026L815.456 184.72L806.606 193.304L810.784 197.611ZM814.61 186.253L803.459 239.088L809.329 240.327L820.48 187.493L814.61 186.253ZM808.778 237.887L797.627 223.284L792.859 226.926L804.01 241.528L808.778 237.887ZM795.243 228.105H859.76V222.105H795.243V228.105ZM856.826 224.475L851.693 248.37L857.56 249.63L862.693 225.735L856.826 224.475ZM854.627 246H772.587V252H854.627V246ZM775.521 249.625L803.31 119.087L797.442 117.838L769.653 248.375L775.521 249.625ZM800.376 121.462H882.416V115.462H800.376V121.462ZM879.482 117.832L874.349 141.727L880.216 142.988L885.349 119.093L879.482 117.832ZM877.283 139.357H812.855V145.357H877.283V139.357ZM869.778 249L866.844 248.375L866.072 252H869.778V249ZM897.567 118.462V115.462H895.138L894.633 117.838L897.567 118.462ZM979.784 126.162L977.734 128.353L977.74 128.359L977.747 128.365L979.784 126.162ZM985.625 160.5L982.782 159.541L982.782 159.541L985.625 160.5ZM978.987 173.509L981.413 175.274L981.42 175.265L981.426 175.257L978.987 173.509ZM968.898 183.156L967.26 180.642L967.252 180.648L967.243 180.654L968.898 183.156ZM956.331 187.492L956.098 184.502L956.158 190.488L956.331 187.492ZM964.827 189.528L963.586 192.259L963.612 192.271L963.638 192.282L964.827 189.528ZM971.022 194.838L968.489 196.445L968.498 196.459L968.507 196.473L971.022 194.838ZM972.615 211.033L969.663 210.497L969.658 210.529L969.652 210.562L972.615 211.033ZM970.934 219.441L968.013 218.754L968.007 218.781L968.001 218.808L970.934 219.441ZM968.898 228.468L965.978 227.781L965.978 227.781L968.898 228.468ZM967.128 236.964L964.174 236.439L964.169 236.471L964.164 236.503L967.128 236.964ZM966.686 246.876L963.709 247.248L963.722 247.357L963.744 247.464L966.686 246.876ZM967.394 249V252H972.492L970.016 247.543L967.394 249ZM935.799 249L933.088 250.284L933.901 252H935.799V249ZM935.622 237.76L938.575 238.29L938.577 238.278L935.622 237.76ZM937.038 230.415L934.113 229.75L934.107 229.775L934.102 229.8L937.038 230.415ZM938.808 222.715L935.886 222.036L935.886 222.036L938.808 222.715ZM940.313 215.635L943.26 216.193L943.262 216.186L943.263 216.179L940.313 215.635ZM937.481 202.183L935.622 204.538L935.656 204.565L935.69 204.591L937.481 202.183ZM896.948 199.528L895.548 196.875L896.948 202.528V199.528ZM913.055 191.032L915.988 191.66L917.329 185.386L911.655 188.379L913.055 191.032ZM900.665 249V252H903.091L903.598 249.627L900.665 249ZM914.471 184.041L912.794 186.529L916.478 189.011L917.405 184.667L914.471 184.041ZM901.992 175.633V172.633H892.17L900.316 178.121L901.992 175.633ZM943.853 173.155L945.254 175.808L945.263 175.803L945.272 175.798L943.853 173.155ZM951.464 166.164L948.945 164.534L948.941 164.541L948.937 164.547L951.464 166.164ZM951.11 146.163L948.813 148.094L948.824 148.107L948.836 148.12L951.11 146.163ZM909.161 142.269L907.251 139.956L900.815 145.269H909.161V142.269ZM926.418 128.02L929.352 128.646L931.148 120.225L924.508 125.707L926.418 128.02ZM872.712 249.625L900.501 119.087L894.633 117.838L866.844 248.375L872.712 249.625ZM897.567 121.462H952.703V115.462H897.567V121.462ZM952.703 121.462C964.987 121.462 973.074 123.994 977.734 128.353L981.833 123.971C975.519 118.064 965.552 115.462 952.703 115.462V121.462ZM977.747 128.365C982.551 132.808 985.014 138.642 985.014 146.163H991.014C991.014 137.164 987.99 129.664 981.82 123.959L977.747 128.365ZM985.014 146.163C985.014 150.665 984.274 155.12 982.782 159.541L988.467 161.459C990.161 156.44 991.014 151.337 991.014 146.163H985.014ZM982.782 159.541C981.282 163.986 979.203 168.056 976.548 171.762L981.426 175.257C984.435 171.057 986.781 166.454 988.467 161.459L982.782 159.541ZM976.561 171.745C973.936 175.354 970.837 178.312 967.26 180.642L970.536 185.67C974.747 182.926 978.374 179.453 981.413 175.274L976.561 171.745ZM967.243 180.654C963.829 182.913 960.128 184.188 956.098 184.502L956.564 190.483C961.62 190.089 966.297 188.473 970.553 185.658L967.243 180.654ZM956.158 190.488C958.886 190.645 961.352 191.244 963.586 192.259L966.068 186.797C963.11 185.452 959.912 184.694 956.504 184.497L956.158 190.488ZM963.638 192.282C965.673 193.161 967.273 194.527 968.489 196.445L973.556 193.231C971.703 190.311 969.173 188.137 966.016 186.774L963.638 192.282ZM968.507 196.473C969.621 198.187 970.323 200.71 970.323 204.308H976.323C976.323 199.999 975.491 196.209 973.537 193.203L968.507 196.473ZM970.323 204.308C970.323 205.96 970.115 208.014 969.663 210.497L975.567 211.57C976.059 208.861 976.323 206.431 976.323 204.308H970.323ZM969.652 210.562C969.253 213.074 968.707 215.804 968.013 218.754L973.854 220.128C974.576 217.06 975.151 214.185 975.578 211.505L969.652 210.562ZM968.001 218.808C967.356 221.799 966.682 224.79 965.978 227.781L971.818 229.155C972.531 226.128 973.213 223.101 973.866 220.074L968.001 218.808ZM965.978 227.781C965.259 230.836 964.657 233.722 964.174 236.439L970.082 237.489C970.543 234.896 971.121 232.118 971.818 229.155L965.978 227.781ZM964.164 236.503C963.736 239.252 963.509 241.687 963.509 243.778H969.509C969.509 242.094 969.694 239.986 970.092 237.425L964.164 236.503ZM963.509 243.778C963.509 245.003 963.573 246.161 963.709 247.248L969.662 246.504C969.562 245.703 969.509 244.796 969.509 243.778H963.509ZM963.744 247.464C963.955 248.521 964.271 249.557 964.771 250.457L970.016 247.543C969.926 247.381 969.77 247.001 969.627 246.288L963.744 247.464ZM967.394 246H935.799V252H967.394V246ZM938.51 247.716C938.27 247.208 938.003 246.04 938.003 243.867H932.003C932.003 246.296 932.266 248.55 933.088 250.284L938.51 247.716ZM938.003 243.867C938.003 242.321 938.184 240.469 938.575 238.29L932.669 237.231C932.234 239.654 932.003 241.873 932.003 243.867H938.003ZM938.577 238.278C938.984 235.953 939.45 233.537 939.974 231.03L934.102 229.8C933.564 232.367 933.086 234.848 932.667 237.243L938.577 238.278ZM939.963 231.08C940.552 228.489 941.141 225.927 941.73 223.395L935.886 222.036C935.295 224.578 934.704 227.149 934.113 229.75L939.963 231.08ZM941.73 223.395C942.328 220.824 942.838 218.423 943.26 216.193L937.365 215.078C936.961 217.214 936.468 219.533 935.886 222.036L941.73 223.395ZM943.263 216.179C943.697 213.82 943.932 211.683 943.932 209.794H937.932C937.932 211.21 937.754 212.967 937.362 215.092L943.263 216.179ZM943.932 209.794C943.932 205.669 942.471 202.156 939.271 199.776L935.69 204.591C937.092 205.633 937.932 207.194 937.932 209.794H943.932ZM939.339 199.829C936.353 197.471 932.271 196.528 927.569 196.528V202.528C931.598 202.528 934.124 203.356 935.622 204.538L939.339 199.829ZM927.569 196.528H896.948V202.528H927.569V196.528ZM898.347 202.182L914.454 193.686L911.655 188.379L895.548 196.875L898.347 202.182ZM910.121 190.405L897.731 248.373L903.598 249.627L915.988 191.66L910.121 190.405ZM900.665 246H869.778V252H900.665V246ZM916.147 181.553L903.668 173.146L900.316 178.121L912.794 186.529L916.147 181.553ZM901.992 178.633H933.675V172.633H901.992V178.633ZM933.675 178.633C937.804 178.633 941.68 177.696 945.254 175.808L942.451 170.503C939.771 171.919 936.862 172.633 933.675 172.633V178.633ZM945.272 175.798C948.893 173.854 951.817 171.176 953.99 167.781L948.937 164.547C947.334 167.052 945.184 169.035 942.433 170.513L945.272 175.798ZM953.982 167.794C956.275 164.25 957.384 160.191 957.384 155.721H951.384C951.384 159.157 950.546 162.06 948.945 164.534L953.982 167.794ZM957.384 155.721C957.384 151.279 956.103 147.366 953.384 144.206L948.836 148.12C950.482 150.034 951.384 152.493 951.384 155.721H957.384ZM953.406 144.232C950.435 140.7 945.867 139.269 940.49 139.269V145.269C944.906 145.269 947.418 146.434 948.813 148.094L953.406 144.232ZM940.49 139.269H909.161V145.269H940.49V139.269ZM911.071 144.582L928.328 130.334L924.508 125.707L907.251 139.956L911.071 144.582ZM923.484 127.395L911.537 183.415L917.405 184.667L929.352 128.646L923.484 127.395Z" fill="black"/>
<rect x="92.5959" y="78.5" width="244" height="163" rx="16.5" stroke="black" stroke-width="3"/>
<rect x="141.096" y="102" width="146" height="46" rx="3" fill="white" stroke="black" stroke-width="2"/>
<rect x="143.63" y="197.513" width="66.6739" height="9.62174" stroke="black" stroke-width="2"/>
<rect x="218.643" y="197.513" width="66.6739" height="9.62174" stroke="black" stroke-width="2"/>
<rect x="210.191" y="192.23" width="8.56522" height="21.2435" stroke="black" stroke-width="2"/>
<path d="M139.096 168C139.096 175.214 133.466 181 126.596 181C119.726 181 114.096 175.214 114.096 168C114.096 160.786 119.726 155 126.596 155C133.466 155 139.096 160.786 139.096 168Z" stroke="black" stroke-width="2"/>
<circle cx="302" cy="178" r="13" stroke="black" stroke-width="2"/>
<path d="M135.665 79.3721C134.155 82.264 132.238 84.691 129.914 86.6529C127.564 88.5286 125.033 90.0578 122.323 91.2404C119.613 92.4231 116.821 93.3468 113.948 94.0116C112.483 94.3291 111.062 94.6332 109.683 94.9237C108.334 95.1574 106.985 95.3912 105.636 95.625C102.968 96.0359 100.486 96.4357 98.1905 96.8245C95.981 97.1862 94.198 97.6985 92.8416 98.3613C92.2645 98.6373 91.4974 99.1388 90.5404 99.8659C89.613 100.536 88.8384 101.467 88.2166 102.658C86.6177 105.72 84.3361 107.74 81.3718 108.717C78.4643 109.725 74.9975 109.178 70.9715 107.075C66.6621 104.825 64.1652 102.006 63.4809 98.6173C62.7965 95.229 63.165 92.174 64.5863 89.4522C66.5405 85.7098 68.8804 82.8182 71.6058 80.7774C74.2721 78.8501 77.0861 77.469 80.0478 76.6341C83.0392 75.7425 86.039 75.1801 89.0474 74.9469C92.3715 74.6621 95.2677 74.2981 97.7362 73.8551C100.52 73.3605 103.053 72.5181 105.334 71.3279C107.645 70.081 109.541 68.0399 111.021 65.2047C112.857 61.6891 113.568 58.6687 113.155 56.1436C112.742 53.6184 111.649 51.4962 109.876 49.7769C108.161 48.0872 106.197 46.665 103.986 45.5102C98.8258 42.8157 94.7438 42.2718 91.7399 43.8784C88.7927 45.5147 86.4011 48.0907 84.5653 51.6063C82.4334 55.689 79.4453 58.0255 75.6008 58.616C71.8131 59.236 68.4166 58.7614 65.4113 57.1921C61.5554 55.1786 58.9845 52.5011 57.6985 49.1594C56.4421 45.7611 56.6874 42.3892 58.4344 39.0436C59.2339 37.5126 60.3959 35.7019 61.9205 33.6114C63.4748 31.4642 65.4149 29.3381 67.7409 27.2331C70.0669 25.1281 72.7898 23.2304 75.9097 21.5399C78.9136 19.9332 82.4389 18.7792 86.4856 18.0779C90.4164 17.4603 94.7636 17.5654 99.5273 18.3931C104.291 19.2209 109.508 21.1152 115.178 24.0762C121.586 27.4221 126.741 31.2324 130.642 35.507C134.631 39.7546 137.441 44.2532 139.075 49.003C142.338 58.6455 141.202 68.7685 135.665 79.3721ZM73.4315 138.02C70.9146 142.84 67.8301 145.775 64.1778 146.827C60.5552 147.822 56.5324 147.165 52.1095 144.855C42.6967 139.94 40.4479 132.776 45.3632 123.363C47.9096 118.486 50.9793 115.579 54.5724 114.641C58.1654 113.703 62.2301 114.418 66.7664 116.787C71.4728 119.244 74.3827 122.171 75.496 125.567C76.6661 128.992 75.9779 133.143 73.4315 138.02Z" fill="black"/>
</svg>
